<?xml version="1.0" encoding="UTF-8"?>
<svg xmlns="http://www.w3.org/2000/svg" viewBox="0 0 56.04 81.74">
  <defs>
    <style>
      .cls-1 {
        font-family: Audiowide-Regular, Audiowide;
        font-size: 72px;
      }

      .cls-2 {
        fill: #fff;
      }
    </style>
  </defs>
  <g id="_Слой_1" data-name="Слой 1">
    <text class="cls-1" transform="translate(0 61.21)"><tspan x="0" y="0">S</tspan></text>
  </g>
  <g id="_Слой_2" data-name="Слой 2">
    <polygon class="cls-2" points="3.8 61.21 18.17 52.03 2.04 51.81 3.8 61.21"/>
    <polygon class="cls-2" points="49.15 10.79 34.78 19.97 50.91 20.2 49.15 10.79"/>
    <path class="cls-2" d="M37.31,21.91l2.47.03v-3c-1.1.02-2.21,0-3.29.26-.36.09-.71.37-.9.69s-.27.8-.15,1.16c.26.79,1.03,1.25,1.85,1.05.22-.05.43-.09.66-.12l-.4.05c.74-.09,1.49-.07,2.24-.08.39,0,.78-.16,1.06-.44.26-.26.46-.69.44-1.06s-.14-.79-.44-1.06-.65-.43-1.06-.44l-2.47-.03c-.38,0-.79.17-1.06.44s-.46.69-.44,1.06.14.79.44,1.06.65.43,1.06.44h0Z"/>
    <path class="cls-2" d="M35.88,22.54c4.65-.56,9.31-.93,13.99-1.1,1.95-.07,1.91-2.84,0-3-2.57-.22-5.15-.21-7.72.02-1.94.18-1.92,2.8,0,3,3.44.36,6.89.16,10.33-.12,1.9-.15,1.96-3.02,0-3-3.93.03-7.86.19-11.79.46-1.92.13-1.95,2.92,0,3,4.03.16,8.06-.08,12.08-.41,1.9-.16,1.96-3.01,0-3-4.22.03-8.44.51-12.64.85-1.9.15-1.96,2.99,0,3,3.27.02,6.54-.18,9.78-.59.8-.1,1.5-.62,1.5-1.5,0-.81-.69-1.5-1.5-1.5-3.42,0-6.83.11-10.24.3-1.92.11-1.94,2.91,0,3,2.67.13,5.34.07,8-.19.81-.08,1.5-.63,1.5-1.5,0-.75-.69-1.58-1.5-1.5-2.66.25-5.33.32-8,.19v3c3.41-.2,6.82-.3,10.24-.3v-3c-3.25.41-6.51.61-9.78.59v3c4.2-.33,8.43-.82,12.64-.85v-3c-4.02.33-8.04.58-12.08.41v3c3.92-.27,7.86-.42,11.79-.46v-3c-3.44.28-6.89.48-10.33.12v3c2.57-.24,5.15-.24,7.72-.02v-3c-4.68.17-9.34.54-13.99,1.1-.8.1-1.5.62-1.5,1.5,0,.74.69,1.6,1.5,1.5h0Z"/>
  </g>
</svg>